<svg xmlns="http://www.w3.org/2000/svg" viewBox="0 0 320 320">
  <defs>
    <radialGradient id="g1" cx="50%" cy="44%" r="58%">
      <stop offset="0%" stop-color="#d6b6ff"/>
      <stop offset="48%" stop-color="#9b40fc"/>
      <stop offset="100%" stop-color="#34104f"/>
    </radialGradient>
    <radialGradient id="g2" cx="60%" cy="40%" r="70%">
      <stop offset="0%" stop-color="#d4ff71"/>
      <stop offset="52%" stop-color="#86c900"/>
      <stop offset="100%" stop-color="#223400"/>
    </radialGradient>
    <filter id="shadow" x="-30%" y="-30%" width="160%" height="160%">
      <feDropShadow dx="0" dy="18" stdDeviation="16" flood-color="#000000" flood-opacity="0.45"/>
    </filter>
  </defs>
  <g filter="url(#shadow)">
    <path d="M239 44c36 19 62 56 66 97 5 41-12 85-48 117-41 36-93 55-142 45C72 294 31 255 18 211 4 168 20 120 57 84 94 48 144 31 190 35c18 2 35 5 49 9z" fill="url(#g1)"/>
    <path d="M257 54c31 17 51 47 55 82 5 34-9 72-40 101-28 26-59 38-89 40l22-49c17-5 31-14 43-27 22-22 31-53 23-78-5-15-15-29-28-41l14-28z" fill="url(#g2)"/>
    <circle cx="173" cy="173" r="51" fill="#12071d"/>
    <path d="M95 111c12-11 31-11 43 2 12 12 12 30 0 41-12 12-31 12-43 0-12-11-12-31 0-43z" fill="#a2ff39"/>
    <path d="M104 120c6-6 16-6 22 0 6 6 6 16 0 22-6 6-16 6-22 0-6-6-6-16 0-22z" fill="#2a3412"/>
    <path d="M217 226c16-14 39-13 53 2 14 14 14 38 0 52-14 15-37 16-53 2-15-13-17-40 0-56z" fill="#7bf500"/>
    <path d="M102 214c18 0 32 13 32 30s-14 31-32 31-33-14-33-31 15-30 33-30z" fill="none" stroke="#7bf500" stroke-width="11" stroke-linecap="round"/>
    <path d="M242 93c14-6 29 1 35 14 5 13 1 28-13 34-14 7-29 0-35-13-6-14 0-30 13-35z" fill="#7dfd22"/>
    <path d="M268 255c4 15 1 28-8 40" fill="none" stroke="#8ef542" stroke-width="9" stroke-linecap="round"/>
    <path d="M234 262c2 13-1 25-7 36" fill="none" stroke="#8ef542" stroke-width="7" stroke-linecap="round"/>
  </g>
</svg>
